:SAMPLES-PER-SECOND 30
:FULLY-SPECIFIED
:DEGREES
199
root  42.8408 36.5256 7.70051 68.2263 85.3094 27.6112
RightUpLeg  -75.0805 -11.6723 11.0338
RightLeg  39.504 -3.59997 -3.46175
RightFoot  -1.61655 0.573494 -6.85667
RightToes  0.000482159 0.542163 -0.142577
Spine  71.3892 -5.11441 7.10246
Spine1  4.33678 1.52062 -7.91279
HEad  -38.048 -7.6777 0.871014
LeftShoulder1  5.93983 -25.2872 -13.5258
LeftArm  -87.8897 -64.4945 33.2665
LeftForeArm  0.559885 -13.3587 0.649341
LeftHand  -0.25398 0.0180481 5.50724
RightShoulder  1.50919 12.1525 1.40526
RightArm  -84.7077 55.0789 -20.3914
RightForeArm  -8.99028 15.7405 1.47737
RightHand  -1.15498 9.79833 -9.28699
LeftUpLeg  -73.2036 12.4616 -23.0785
LeftLeg  36.5525 -2.358 -1.50858
LeftFoot  -2.81601 -0.660512 9.06982
LeftToes  1.06245e-005 4.65856e-005 -8.18503e-006
200
root  42.6434 36.3686 7.59657 68.1959 85.2498 28.3094
RightUpLeg  -75.1326 -11.085 9.76342
RightLeg  40.6653 -4.26649 -4.20902
RightFoot  -1.68697 0.551366 -6.65085
RightToes  0.000482159 0.542163 -0.142577
Spine  71.3922 -5.14069 7.11472
Spine1  4.49059 1.51837 -8.19489
HEad  -37.8861 -7.43634 0.614677
LeftShoulder1  5.95071 -25.1672 -13.6638
LeftArm  -88.7882 -65.377 34.0227
LeftForeArm  1.20584 -13.6258 0.341524
LeftHand  -0.25398 0.0180481 5.50724
RightShoulder  1.46287 11.895 1.24802
RightArm  -83.368 55.3674 -20.7508
RightForeArm  -10.3619 14.0988 0.763557
RightHand  -1.38317 10.6999 -10.4548
LeftUpLeg  -73.3912 12.4891 -23.2391
LeftLeg  37.7015 -2.24517 -1.4897
LeftFoot  -2.98475 -0.669129 9.38386
LeftToes  1.06245e-005 4.65856e-005 -8.18503e-006
201
root  42.3823 36.2003 7.4815 68.3191 85.1668 29.3934
RightUpLeg  -74.911 -10.5253 8.4633
RightLeg  41.5975 -4.92111 -4.96013
RightFoot  -1.98326 0.532637 -6.65966
RightToes  0.000482159 0.542163 -0.142577
Spine  71.4412 -5.20454 7.0788
Spine1  4.56227 1.47246 -8.53209
HEad  -37.217 -7.13442 0.243768
LeftShoulder1  5.95374 -25.0898 -13.7385
LeftArm  -88.803 -66.2953 35.8218
LeftForeArm  -0.616572 -11.9953 0.418833
LeftHand  -0.25398 0.0180481 5.50724
RightShoulder  1.45969 11.8158 1.27943
RightArm  -81.7508 56.0505 -21.9178
RightForeArm  -12.8919 10.8699 -0.258339
RightHand  -1.4289 11.2713 -10.4294
LeftUpLeg  -73.4047 12.6747 -23.6366
LeftLeg  38.6999 -2.29467 -1.59501
LeftFoot  -3.20803 -0.698921 10.0775
LeftToes  1.06245e-005 4.65856e-005 -8.18503e-006
202
root  42.0463 36.0721 7.34381 65.577 85.1752 27.9569
RightUpLeg  -74.056 -10.0343 7.57444
RightLeg  41.8645 -5.65645 -5.70078
RightFoot  -2.18823 0.536376 -6.87066
RightToes  0.000482159 0.542163 -0.142577
Spine  71.5006 -5.20445 7.01779
Spine1  4.67598 1.52225 -8.83461
HEad  -36.1474 -6.78179 -0.25236
LeftShoulder1  6.09554 -25.223 -14.168
LeftArm  -89.5341 -67.0478 39.3075
LeftForeArm  -2.15801 -9.00529 0.340753
LeftHand  -0.25398 0.0180481 5.50724
RightShoulder  1.51315 12.3051 1.32876
RightArm  -80.9295 56.514 -23.5446
RightForeArm  -14.6169 7.05068 -0.899207
RightHand  -1.30715 10.7296 -9.89117
LeftUpLeg  -73.0053 13.2195 -24.0026
LeftLeg  39.2015 -2.43731 -1.75184
LeftFoot  -3.47983 -0.735705 10.978
LeftToes  1.06245e-005 4.65856e-005 -8.18503e-006
203
root  41.6253 36.0263 7.16976 58.3378 85.3004 22.3878
RightUpLeg  -72.5611 -9.53633 7.10975
RightLeg  41.3445 -6.20417 -6.11078
RightFoot  -1.76567 0.58812 -7.14692
RightToes  0.000482159 0.542163 -0.142577
Spine  71.392 -5.0538 7.06411
Spine1  4.98502 1.76166 -8.92272
HEad  -35.0932 -6.45113 -0.961691
LeftShoulder1  6.35781 -25.7764 -14.6976
LeftArm  -90.9052 -67.4544 43.7708
LeftForeArm  0.262377 -5.86975 -0.160008
LeftHand  -0.25398 0.0180481 5.50724
RightShoulder  1.54251 13.1875 0.953344
RightArm  -79.6218 56.8172 -25.6225
RightForeArm  -14.9408 2.96137 -1.18103
RightHand  -1.36053 9.043 -11.4098
LeftUpLeg  -72.0867 14.0473 -24.0276
LeftLeg  39.0423 -2.45919 -1.76028
LeftFoot  -3.4403 -0.813148 12.0228
LeftToes  1.06245e-005 4.65856e-005 -8.18503e-006
204
root  41.1352 36.0756 6.96585 48.6628 85.3969 14.6741
RightUpLeg  -70.5501 -9.01074 6.65339
RightLeg  40.1241 -6.31486 -5.96131
RightFoot  -0.659921 0.658451 -7.08125
RightToes  0.000482159 0.542163 -0.142577
Spine  70.9529 -4.80602 7.13056
Spine1  5.43188 2.03517 -8.81225
HEad  -34.2261 -6.04844 -1.86814
LeftShoulder1  6.48404 -26.5138 -14.5608
LeftArm  -90.8417 -67.8368 46.6337
LeftForeArm  5.828 -3.02701 -0.745725
LeftHand  -0.25398 0.0180481 5.50724
RightShoulder  1.52665 13.9752 0.370425
RightArm  -77.4241 57.6938 -27.6875
RightForeArm  -13.0774 -1.20967 -1.02282
RightHand  -1.64761 7.20779 -15.5076
LeftUpLeg  -70.6357 14.9711 -23.7719
LeftLeg  38.2151 -2.42981 -1.67768
LeftFoot  -2.78502 -0.963628 13.0415
LeftToes  1.06245e-005 4.65856e-005 -8.18503e-006
205
root  40.6132 36.219 6.75101 39.4125 85.3936 7.61177
RightUpLeg  -68.0106 -8.65725 6.19699
RightLeg  38.2922 -6.45227 -5.70701
RightFoot  0.824969 0.716612 -6.65766
RightToes  0.000482159 0.542163 -0.142577
Spine  70.1772 -4.62463 6.98259
Spine1  5.94915 2.13299 -8.78658
HEad  -33.4808 -5.34387 -2.81069
LeftShoulder1  6.44218 -26.9059 -14.0968
LeftArm  -88.3976 -68.7563 45.5767
LeftForeArm  9.54249 -0.166181 -1.2258
LeftHand  -0.25398 0.0180481 5.50724
RightShoulder  1.60551 14.4805 0.587209
RightArm  -74.9066 59.501 -27.993
RightForeArm  -10.305 -4.04566 -0.4665
RightHand  -2.02769 6.55515 -19.8822
LeftUpLeg  -68.6026 16.0038 -23.4765
LeftLeg  36.6747 -2.66092 -1.75751
LeftFoot  -1.6322 -1.16581 13.7725
LeftToes  1.06245e-005 4.65856e-005 -8.18503e-006
206
root  40.0844 36.4497 6.52928 30.9434 85.2787 1.43788
RightUpLeg  -64.9925 -8.76261 6.14345
RightLeg  35.7135 -6.79892 -5.48322
RightFoot  2.60133 0.798078 -6.36064
RightToes  0.000482159 0.542163 -0.142577
Spine  69.0714 -4.57238 6.58047
Spine1  6.64423 2.05234 -8.96991
HEad  -32.4783 -4.22674 -3.92246
LeftShoulder1  6.65714 -26.7952 -14.9576
LeftArm  -82.1135 -70.0546 38.9903
LeftForeArm  8.03404 2.44095 -1.66443
LeftHand  -0.25398 0.0180481 5.50724
RightShoulder  1.91724 14.8637 2.29868
RightArm  -71.4883 61.6848 -24.3211
RightForeArm  -8.80594 -4.21819 0.279504
RightHand  -2.48307 7.44713 -22.6011
LeftUpLeg  -66.0013 17.227 -23.2543
LeftLeg  34.2734 -3.20516 -1.98742
LeftFoot  -0.240205 -1.39045 14.2436
LeftToes  1.06245e-005 4.65856e-005 -8.18503e-006
